# xmcd
#
# Track frame offsets:
#	150
#	11370
#	21500
#	32025
#	42250
#	52837
#	65645
#	78775
#	88525
#	100145
#	118160
#	131787
#	145575
#	158450
#	170575
#	190800
#	208325
#	224500
#	236700
#	254525
#	273037
#
# Disc length: 3854 seconds
#
# Revision: 0
# Processed by: cddbd v1.5.1PL2 Copyright (c) Steve Scherf et al.
# Submitted via: dBpowerAMP V4.0
#
DISCID=250f0c15
DTITLE=Various Artist - The Lanor Records Story 1960-1992
DYEAR=1995
DGENRE=Country
TTITLE0=J'ai Fait Mon Ede'e - Shirley Bergeron
TTITLE1=Parlez Vous Francais - Bille Matte
TTITLE2=I Love My Baby - Eltradors
TTITLE3=Life Problem - Elton Anderson
TTITLE4=Can't Stop My Loving You - Little Victor
TTITLE5=Drifting Cloud - Drifting Charles
TTITLE6=Keep Your Arms Around Me - Charles Mann
TTITLE7=You're No Longer Mine - Charles Mann
TTITLE8=I'll Be Your Jim - Willie Mallory
TTITLE9=Running Out Of Fools - Hugh Boynton
TTITLE10=Love Don't Love Nobody - Ella Brown
TTITLE11=Red Red Wine - Charles Mann
TTITLE12=Crazy Face - Jay Randall
TTITLE13=Hot Hot Lips - Ralph Prescott
TTITLE14=I Found My Woman - Roy Carrier
TTITLE15=Chewing Gum - Donald Jacob
TTITLE16=Walk Of Live - Charles Mann
TTITLE17=Accordion Players Waltz - Tim Broussard
TTITLE18=Drop That Ego - Generation Band
TTITLE19=Zydeco All Night - Joe Walker
TTITLE20=My Name Is Beau Jocque - Beau Jocque
EXTD=
EXTT0=
EXTT1=
EXTT2=
EXTT3=
EXTT4=
EXTT5=
EXTT6=
EXTT7=
EXTT8=
EXTT9=
EXTT10=
EXTT11=
EXTT12=
EXTT13=
EXTT14=
EXTT15=
EXTT16=
EXTT17=
EXTT18=
EXTT19=
EXTT20=
PLAYORDER=
